<?xml version="1.0" encoding="UTF-8" standalone="no"?>
<!-- Created with Inkscape (http://www.inkscape.org/) -->

<svg
   xmlns:dc="http://purl.org/dc/elements/1.1/"
   xmlns:cc="http://creativecommons.org/ns#"
   xmlns:rdf="http://www.w3.org/1999/02/22-rdf-syntax-ns#"
   xmlns:svg="http://www.w3.org/2000/svg"
   xmlns="http://www.w3.org/2000/svg"
   xmlns:sodipodi="http://sodipodi.sourceforge.net/DTD/sodipodi-0.dtd"
   xmlns:inkscape="http://www.inkscape.org/namespaces/inkscape"
   width="210mm"
   height="297mm"
   viewBox="0 0 744.09448819 1052.3622047"
   id="svg2"
   version="1.1"
   inkscape:version="0.91 r13725"
   sodipodi:docname="rustsick.svg"
   inkscape:export-filename="/home/aditya/projects/rustsick/rustsick2.png"
   inkscape:export-xdpi="162"
   inkscape:export-ydpi="162">
  <defs
     id="defs4" />
  <sodipodi:namedview
     id="base"
     pagecolor="#ffffff"
     bordercolor="#666666"
     borderopacity="1.0"
     inkscape:pageopacity="0.0"
     inkscape:pageshadow="2"
     inkscape:zoom="1.979899"
     inkscape:cx="218.02196"
     inkscape:cy="773.99006"
     inkscape:document-units="px"
     inkscape:current-layer="layer1"
     showgrid="false"
     inkscape:window-width="1600"
     inkscape:window-height="870"
     inkscape:window-x="0"
     inkscape:window-y="1"
     inkscape:window-maximized="1" />
  <metadata
     id="metadata7">
    <rdf:RDF>
      <cc:Work
         rdf:about="">
        <dc:format>image/svg+xml</dc:format>
        <dc:type
           rdf:resource="http://purl.org/dc/dcmitype/StillImage" />
        <dc:title />
      </cc:Work>
    </rdf:RDF>
  </metadata>
  <g
     inkscape:label="Layer 1"
     inkscape:groupmode="layer"
     id="layer1">
    <rect
       style="opacity:1;fill:#463628;fill-opacity:1;stroke:none;stroke-opacity:1"
       id="rect4136"
       width="491.42856"
       height="167.32848"
       x="68.571426"
       y="160.93364"
       inkscape:export-xdpi="100.72674"
       inkscape:export-ydpi="100.72674" />
    <path
       id="path4192"
       d="m 294.89156,279.23698 -9.00136,-5.57207 c -0.0758,-0.8768 -0.16184,-1.75151 -0.25607,-2.62215 l 7.73535,-7.21504 c 0.78665,-0.73338 1.139,-1.81912 0.92594,-2.87002 -0.2069,-1.05501 -0.94643,-1.92359 -1.95227,-2.29849 l -9.88839,-3.69764 c -0.24788,-0.8563 -0.50805,-1.70645 -0.77435,-2.5525 l 6.16617,-8.56708 c 0.62888,-0.87064 0.75796,-2.00348 0.34824,-2.99703 -0.40972,-0.98945 -1.30493,-1.69826 -2.36404,-1.87239 l -10.42716,-1.6962 c -0.40561,-0.79074 -0.82762,-1.5692 -1.25371,-2.34151 l 4.38186,-9.61797 c 0.44864,-0.97922 0.35645,-2.11822 -0.24173,-3.0073 -0.59612,-0.89317 -1.60607,-1.41553 -2.68361,-1.37457 l -10.58286,0.36875 c -0.54695,-0.68423 -1.10416,-1.3623 -1.67162,-2.02808 l 2.43164,-10.30425 c 0.24583,-1.04682 -0.0635,-2.14279 -0.82557,-2.90281 -0.7559,-0.75796 -1.85393,-1.07139 -2.90075,-0.82556 l -10.30426,2.42959 c -0.66782,-0.5654 -1.3459,-1.12466 -2.03215,-1.67163 l 0.37078,-10.58285 c 0.041,-1.07139 -0.48141,-2.08953 -1.37458,-2.68361 -0.89522,-0.59818 -2.02808,-0.68832 -3.00524,-0.24377 l -9.61593,4.38391 c -0.7764,-0.42611 -1.55485,-0.84811 -2.3415,-1.25577 l -1.70031,-10.4292 c -0.17208,-1.05707 -0.88088,-1.95433 -1.87238,-2.36404 -0.98945,-0.41177 -2.12435,-0.27862 -2.99499,0.34825 l -8.57321,6.16617 c -0.84401,-0.26838 -1.69212,-0.52648 -2.54841,-0.77231 l -3.69765,-9.89046 c -0.37488,-1.00787 -1.24346,-1.74741 -2.29848,-1.95635 -1.05296,-0.20691 -2.13664,0.14341 -2.86797,0.92593 l -7.21504,7.74151 c -0.87064,-0.0964 -1.74741,-0.18437 -2.62216,-0.25607 l -5.57206,-9.00342 c -0.56336,-0.9116 -1.561,-1.46676 -2.63445,-1.46676 -1.07344,0 -2.06903,0.55516 -2.6324,1.46676 l -5.57207,9.00342 c -0.8768,0.0718 -1.75357,0.15979 -2.62421,0.25607 l -7.21706,-7.74151 c -0.73133,-0.78254 -1.81707,-1.13284 -2.86799,-0.92593 -1.055,0.211 -1.9236,0.94848 -2.29849,1.95635 l -3.69763,9.89046 c -0.8563,0.24583 -1.70441,0.50598 -2.55046,0.77231 l -8.57118,-6.16617 c -0.87064,-0.62891 -2.00553,-0.76207 -2.99703,-0.34825 -0.98946,0.40971 -1.70031,1.30697 -1.87239,2.36404 l -1.7003,10.4292 c -0.78665,0.40766 -1.56509,0.82762 -2.34149,1.25577 l -9.61594,-4.38391 c -0.97717,-0.4466 -2.11616,-0.35441 -3.00523,0.24377 -0.89316,0.59408 -1.41556,1.61222 -1.37459,2.68361 l 0.36875,10.58285 c -0.68423,0.54697 -1.3623,1.10623 -2.03217,1.67163 l -10.30424,-2.42959 c -1.04682,-0.24379 -2.14485,0.0676 -2.90281,0.82556 -0.76208,0.76002 -1.0714,1.85599 -0.82557,2.90281 l 2.42754,10.30425 c -0.56336,0.66782 -1.12057,1.34385 -1.66752,2.02808 l -10.58287,-0.36875 c -1.0673,-0.0308 -2.08748,0.4814 -2.6836,1.37457 -0.598172,0.88908 -0.688302,2.02808 -0.243776,3.0073 l 4.383906,9.61797 c -0.42611,0.77231 -0.8481,1.55077 -1.25575,2.34151 l -10.427172,1.6962 c -1.05909,0.17208 -1.95226,0.88088 -2.36403,1.87239 -0.40971,0.99355 -0.27656,2.12639 0.34825,2.99703 l 6.16617,8.56708 c -0.26836,0.84605 -0.52853,1.6962 -0.77436,2.5525 l -9.89044,3.69764 c -1.00379,0.3749 -1.74333,1.24348 -1.95227,2.29849 -0.20896,1.05295 0.1413,2.13664 0.92595,2.87002 l 7.73739,7.21504 c -0.0962,0.87064 -0.18231,1.74741 -0.25606,2.62215 l -9.00136,5.57207 c -0.91161,0.56334 -1.46677,1.55896 -1.46677,2.63445 0,1.0755 0.55516,2.06903 1.46677,2.6324 l 9.00136,5.57206 c 0.0737,0.8768 0.15979,1.75152 0.25606,2.62216 l -7.73739,7.21707 c -0.7846,0.73133 -1.13491,1.81707 -0.92595,2.86799 0.20894,1.055 0.94848,1.92154 1.95227,2.29848 l 9.89044,3.69764 c 0.24583,0.85631 0.506,1.70646 0.77436,2.5525 l -6.16617,8.56913 c -0.62684,0.87267 -0.76002,2.00553 -0.34825,2.99499 0.41177,0.99355 1.30698,1.70235 2.36609,1.87238 l 10.425112,1.69621 c 0.40765,0.79074 0.82555,1.5692 1.25575,2.34561 l -4.383906,9.61387 c -0.446586,0.97716 -0.354396,2.11412 0.243776,3.00729 0.59818,0.89522 1.6163,1.4176 2.6836,1.37457 l 10.57876,-0.37078 c 0.55106,0.68831 1.10621,1.36228 1.67163,2.03217 l -2.42754,10.30425 c -0.24583,1.04477 0.0635,2.13664 0.82557,2.89666 0.7559,0.7641 1.85599,1.06935 2.90281,0.82352 l 10.30424,-2.42754 c 0.66987,0.56951 1.34794,1.1226 2.03217,1.66752 l -0.36875,10.5849 c -0.041,1.0714 0.48143,2.08748 1.37459,2.68566 0.88907,0.59613 2.02806,0.68627 3.00523,0.23968 l 9.61594,-4.38187 c 0.77435,0.4302 1.5528,0.84811 2.34149,1.25578 l 1.7003,10.42306 c 0.17208,1.06114 0.88089,1.95841 1.87239,2.36608 0.98945,0.41177 2.12639,0.2786 2.99703,-0.34621 l 8.56708,-6.16616 c 0.84606,0.26836 1.6962,0.53058 2.5525,0.77641 l 3.69766,9.88633 c 0.37488,1.00379 1.24346,1.74744 2.29847,1.95229 1.05297,0.21305 2.13665,-0.13934 2.86798,-0.92595 l 7.21708,-7.7374 c 0.87063,0.1004 1.74741,0.18436 2.6242,0.26222 l 5.57207,9.00135 c 0.56132,0.90751 1.55895,1.46677 2.63239,1.46677 1.07345,0 2.06906,-0.55722 2.63445,-1.46677 l 5.57209,-9.00135 c 0.87678,-0.0778 1.7515,-0.16184 2.62214,-0.26222 l 7.21503,7.7374 c 0.73134,0.78665 1.81707,1.139 2.86798,0.92595 1.05501,-0.20691 1.92361,-0.9485 2.29849,-1.95229 l 3.69764,-9.88633 c 0.85629,-0.24583 1.70645,-0.50805 2.55252,-0.77641 l 8.5691,6.16616 c 0.87064,0.62481 2.00553,0.75798 2.99499,0.34621 0.99151,-0.40767 1.70031,-1.30697 1.87239,-2.36608 l 1.70029,-10.42306 c 0.78665,-0.40767 1.56511,-0.83172 2.34152,-1.25578 l 9.61592,4.38187 c 0.97716,0.44659 2.11412,0.35645 3.00524,-0.23968 0.89317,-0.59818 1.41351,-1.61221 1.37458,-2.68566 l -0.36873,-10.5849 c 0.6842,-0.54696 1.36228,-1.09801 2.03011,-1.66752 l 10.30424,2.42754 c 1.04682,0.24583 2.14485,-0.0594 2.90077,-0.82352 0.76206,-0.76002 1.07139,-1.85189 0.82556,-2.89666 l -2.42753,-10.30425 c 0.5654,-0.66989 1.12261,-1.34386 1.66752,-2.03217 l 10.58286,0.37078 c 1.06729,0.043 2.08747,-0.47935 2.68361,-1.37457 0.59818,-0.89317 0.69035,-2.03013 0.24172,-3.00729 l -4.38187,-9.61387 c 0.42815,-0.77641 0.8481,-1.55487 1.25372,-2.34561 l 10.42716,-1.69621 c 1.06116,-0.17003 1.95433,-0.87883 2.36404,-1.87238 0.40971,-0.98946 0.28065,-2.12232 -0.34825,-2.99499 l -6.16617,-8.56913 c 0.26632,-0.84604 0.52648,-1.69619 0.77436,-2.5525 l 9.88838,-3.69764 c 1.00585,-0.37694 1.74743,-1.24348 1.95229,-2.29848 0.21304,-1.05295 -0.13933,-2.13666 -0.92596,-2.86799 l -7.73534,-7.21707 c 0.0942,-0.87064 0.18026,-1.74741 0.25606,-2.62216 l 9.00138,-5.57206 c 0.91159,-0.56131 1.46676,-1.55896 1.46676,-2.6324 0,-1.07345 -0.55312,-2.06905 -1.46472,-2.63445 m -60.24604,74.67199 c -3.43749,-0.74157 -5.6233,-4.13809 -4.88582,-7.5776 0.73543,-3.44364 4.1176,-5.6356 7.55714,-4.89402 3.43747,0.73543 5.62738,4.13809 4.88989,7.57147 -0.73746,3.44159 -4.11759,5.63558 -7.56121,4.90015 m -3.05851,-20.69043 c -3.13634,-0.67193 -6.22147,1.32336 -6.89339,4.46586 l -3.19575,14.9135 c -9.86176,4.4761 -20.81335,6.96305 -32.34672,6.96305 -11.79765,0 -22.98689,-2.60987 -33.02276,-7.27648 l -3.19371,-14.9135 c -0.67192,-3.1384 -3.75705,-5.13779 -6.89135,-4.46381 l -13.16608,2.82702 c -2.44393,-2.51564 -4.71785,-5.19517 -6.80737,-8.02421 l 64.05843,0 c 0.72517,0 1.20863,-0.13104 1.20863,-0.79075 l 0,-22.65706 c 0,-0.65963 -0.48346,-0.79075 -1.20863,-0.79075 l -18.73613,0 0,-14.36038 20.26434,0 c 1.84986,0 9.89043,0.52852 12.46138,10.80614 0.80508,3.16093 2.57299,13.44264 3.78163,16.73468 1.20455,3.6915 6.10881,11.0663 11.33468,11.0663 l 31.92268,0 c 0.36259,0 0.74977,-0.041 1.15744,-0.11477 -2.21449,3.00933 -4.64409,5.85683 -7.26009,8.51791 l -13.46927,-2.89461 m -88.60014,20.37499 c -3.43749,0.74158 -6.82169,-1.45036 -7.56123,-4.89399 -0.73543,-3.44977 1.45038,-6.83605 4.88786,-7.57762 3.43749,-0.73544 6.82374,1.45652 7.56123,4.90015 0.73543,3.44157 -1.45242,6.83399 -4.88786,7.57146 m -24.30204,-98.55613 c 1.4258,3.21828 -0.0246,6.98968 -3.23878,8.41345 -3.21419,1.42782 -6.97534,-0.0246 -8.40114,-3.24493 -1.42579,-3.22033 0.0246,-6.98559 3.23879,-8.41343 3.21623,-1.42579 6.97533,0.0246 8.40113,3.24491 m -7.46905,17.7057 13.7151,-6.09447 c 2.92944,-1.30082 4.25281,-4.73421 2.95197,-7.6698 l -2.82496,-6.3874 11.10934,0 0,50.07495 -22.41329,0 c -1.94408,-6.83398 -2.9868,-14.04696 -2.9868,-21.50167 0,-2.84545 0.15365,-5.65812 0.44864,-8.42161 m 60.18663,-4.86329 0,-14.75985 26.45508,0 c 1.36639,0 9.64872,1.57943 9.64872,7.77223 0,5.14188 -6.35259,6.98558 -11.57641,6.98558 l -24.52739,0 z m 96.14294,13.2849 c 0,1.95843 -0.0718,3.89636 -0.21511,5.81995 l -8.04263,0 c -0.80509,0 -1.12876,0.52855 -1.12876,1.31723 l 0,3.69354 c 0,8.6941 -4.9022,10.5849 -9.19802,11.06632 -4.09098,0.46093 -8.62648,-1.71259 -9.18574,-4.21592 -2.41319,-13.57375 -6.43452,-16.47041 -12.78504,-21.4812 7.88079,-5.00462 16.08117,-12.39376 16.08117,-22.26987 0,-10.67094 -7.3154,-17.39225 -12.29135,-20.69042 -6.99582,-4.61132 -14.74142,-5.53521 -16.83095,-5.53521 l -83.1776,0 c 11.27936,-12.58839 26.5657,-21.50577 43.85553,-24.74658 l 9.80439,10.28375 c 2.21655,2.32102 5.88757,2.40707 8.21472,0.18847 l 10.97003,-10.49272 c 22.98687,4.27945 42.44817,18.58043 53.67222,38.21995 l -7.51001,16.96207 c -1.29674,2.93558 0.0267,6.36896 2.95403,7.6698 l 14.4628,6.42223 c 0.24993,2.56684 0.38104,5.16032 0.38104,7.78861 m -83.12023,-85.7936 c 2.5402,-2.43369 6.56972,-2.33741 9.00135,0.20691 2.42755,2.55045 2.33536,6.58405 -0.211,9.01569 -2.54022,2.43369 -6.56973,2.33946 -9.00136,-0.20894 -2.4255,-2.54637 -2.33331,-6.57999 0.21101,-9.01366 m 74.52655,59.98178 c 1.42373,-3.21829 5.18488,-4.67072 8.39908,-3.24288 3.21418,1.42581 4.66456,5.19514 3.23876,8.41343 -1.42375,3.22034 -5.1849,4.67276 -8.40114,3.24492 -3.21007,-1.42579 -4.66047,-5.19309 -3.2367,-8.41547"
       inkscape:connector-curvature="0"
       style="fill:#ffffff;fill-opacity:0.09259259" />
    <text
       xml:space="preserve"
       style="font-style:normal;font-weight:normal;font-size:118.36463928px;line-height:125%;font-family:sans-serif;letter-spacing:0px;word-spacing:0px;fill:#ffbe73;fill-opacity:1;stroke:none;stroke-width:1px;stroke-linecap:butt;stroke-linejoin:miter;stroke-opacity:1;"
       x="106.61665"
       y="285.95071"
       id="text4138"
       sodipodi:linespacing="125%"><tspan
         sodipodi:role="line"
         id="tspan4140"
         x="106.61665"
         y="285.95071"
         style="font-style:normal;font-variant:normal;font-weight:100;font-stretch:normal;font-family:Lato;-inkscape-font-specification:'Lato Thin';fill:#ffbe73;fill-opacity:1;">RustSick</tspan></text>
  </g>
</svg>
